<svg id="Layer_1" enable-background="new 0 0 512 512" height="512" viewBox="0 0 512 512" width="512" xmlns="http://www.w3.org/2000/svg"><g><path d="m50 256v60h20v40h20v40h10v40h50v40h50v19.592c17.99 4.188 36.735 6.408 56 6.408 135.862 0 246-110.138 246-246z" fill="#b6bccf"/><path d="m256 10c-54.667 0-105.162 17.842-146 48.007v37.993h-40v40h20v40h-40v40 40h452c0-135.862-110.138-246-246-246z" fill="#b6bccf"/><path d="m314 66c-41.421 0-75 33.579-75 75s33.579 75 75 75 75-33.579 75-75-33.579-75-75-75z" fill="#f9f9f9"/><circle cx="314" cy="141" fill="#b6bccf" r="25"/><g><circle cx="433.887" cy="425.91" r="10"/><path d="m437.02 74.98c-48.352-48.351-112.64-74.98-181.02-74.98-55.149 0-107.69 17.277-151.941 49.963-2.553 1.886-4.059 4.871-4.059 8.044v27.993h-30c-5.522 0-10 4.478-10 10v30h-10c-5.522 0-10 4.478-10 10s4.478 10 10 10h20 10v20h-30c-5.522 0-10 4.478-10 10v40h-30c-5.522 0-10 4.478-10 10s4.478 10 10 10h30v70h-20c-5.522 0-10 4.478-10 10s4.478 10 10 10h40v20h-30c-5.522 0-10 4.478-10 10s4.478 10 10 10h50v20h-40c-5.522 0-10 4.478-10 10s4.478 10 10 10h50v30c0 2.63 1.069 5.21 2.93 7.069 1.86 1.861 4.44 2.931 7.07 2.931h40v30c0 2.63 1.069 5.21 2.93 7.069 1.86 1.86 4.44 2.931 7.07 2.931h40v9.59c0 4.68 3.18 8.68 7.729 9.74 19 4.43 38.61 6.67 58.271 6.67h.02c27.38 0 54.34-4.311 80.12-12.8 24.94-8.21 48.41-20.21 69.75-35.65 2.16-1.57 3.59-3.88 4.01-6.52.431-2.631-.199-5.28-1.77-7.44-1.87-2.59-4.9-4.14-8.11-4.14-2.109 0-4.13.649-5.85 1.899-40.39 29.201-88.17 44.651-138.17 44.651-15.47 0-30.95-1.51-46-4.49v-11.51c0-2.63-1.07-5.21-2.931-7.07-1.859-1.86-4.439-2.93-7.069-2.93h-40v-20h10c5.522 0 10-4.478 10-10s-4.478-10-10-10h-60v-30c0-2.63-1.07-5.21-2.931-7.07-1.859-1.86-4.439-2.93-7.069-2.93v-20h10c5.522 0 10-4.478 10-10s-4.478-10-10-10h-30v-20h10c5.522 0 10-4.478 10-10s-4.478-10-10-10h-30v-40h431.79c-1.771 42.51-15.021 83.75-38.311 119.26-3.02 4.61-1.729 10.82 2.88 13.85 1.641 1.07 3.53 1.641 5.48 1.641 3.39 0 6.51-1.69 8.37-4.521 27.341-41.68 41.791-90.17 41.791-140.23 0-68.38-26.629-132.668-74.98-181.02zm-377.02 171.02v-60h70c5.522 0 10-4.478 10-10s-4.478-10-10-10h-30v-20h10c5.522 0 10-4.478 10-10s-4.478-10-10-10h-30v-20h70c5.522 0 10-4.478 10-10s-4.478-10-10-10h-30v-22.883c39.923-28.226 86.834-43.117 136-43.117 126.779 0 230.53 100.491 235.791 226z"/><path d="m314 56c-46.869 0-85 38.131-85 85s38.131 85 85 85 85-38.131 85-85-38.131-85-85-85zm0 150c-35.841 0-65-29.159-65-65s29.159-65 65-65 65 29.159 65 65-29.159 65-65 65z"/><path d="m314 106c-19.299 0-35 15.701-35 35s15.701 35 35 35 35-15.701 35-35-15.701-35-35-35zm0 50c-8.271 0-15-6.729-15-15s6.729-15 15-15 15 6.729 15 15-6.729 15-15 15z"/><path d="m189 306c0-5.522-4.478-10-10-10h-40c-5.522 0-10 4.478-10 10s4.478 10 10 10h40c5.522 0 10-4.478 10-10z"/><path d="m149 336c-5.522 0-10 4.478-10 10s4.478 10 10 10h10c5.522 0 10-4.478 10-10s-4.478-10-10-10z"/><path d="m279 386c0-5.522-4.478-10-10-10h-60c-5.522 0-10 4.478-10 10s4.478 10 10 10h60c5.522 0 10-4.478 10-10z"/><path d="m219 416c-5.522 0-10 4.478-10 10s4.478 10 10 10h10c5.522 0 10-4.478 10-10s-4.478-10-10-10z"/><path d="m299 416c-5.522 0-10 4.478-10 10s4.478 10 10 10h40c5.522 0 10-4.478 10-10s-4.478-10-10-10z"/></g></g></svg>